<?xml version="1.0" encoding="UTF-8"?>
<svg id="Layer_1" x="0px" y="0px" width="100%" viewBox="0 0 1080 1080"  xmlSpace="preserve"
    className={`w-full h-auto ${className}`}
    {...rest}>
<path d="M0 0 C2.20700414 0.96556431 3.42932829 2.06872753 5 3.875 C4.54625 4.41125 4.0925 4.9475 3.625 5.5 C0.47277034 10.10710489 -0.26261388 14.36010861 0 19.875 C3.0426203 18.82153362 3.91878244 18.01936369 5.52734375 15.16015625 C6.46607318 13.01486047 7.40357709 10.869028 8.33984375 8.72265625 C10.21255774 5.51040097 11.63515425 4.3810186 15 2.875 C19.8471314 2.9759819 22.59402322 4.46902322 26 7.875 C28.09382612 13.48796762 27.4187831 21.65101727 25.0390625 27.05859375 C23.9375 28.6875 23.9375 28.6875 22 30.875 C19.5625 30.0625 19.5625 30.0625 17 28.875 C15.8622793 25.46183789 16.10026693 25.10113276 17.5 22 C18.89772221 18.57210209 19.240642 16.48414038 18 12.875 C14.78646445 13.56593127 14.78646445 13.56593127 13.60546875 16.45703125 C13.13753906 17.52308594 12.66960937 18.58914063 12.1875 19.6875 C9.76684964 24.78967281 8.08939269 27.45147967 3 29.875 C3.928125 30.390625 4.85625 30.90625 5.8125 31.4375 C9.51570389 33.93847893 10.77333421 36.54559132 12 40.875 C12.26264904 46.53289804 10.66149073 50.50155273 7 54.875 C3.31184781 58.03627331 -0.07928723 58.40274774 -4.78515625 58.22265625 C-8.33943214 57.66475404 -10.3595828 56.26394889 -13 53.875 C-15.9224897 49.49126546 -16.559524 46.09722401 -16 40.875 C-13.838479 34.87077499 -10.15125297 31.6164819 -4.625 28.5625 C-4.08875 28.335625 -3.5525 28.10875 -3 27.875 C-3.99 27.215 -4.98 26.555 -6 25.875 C-9.31549142 19.94201534 -8.42229223 13.82601301 -6.6875 7.5625 C-4.36277815 -0.27267363 -4.36277815 -0.27267363 0 0 Z M-7.375 40.375 C-7.91125 41.2 -8.4475 42.025 -9 42.875 C-7.75023244 46.52816671 -7.32901247 47.65565836 -4 49.875 C0.50850182 49.53054402 0.50850182 49.53054402 4 46.875 C4.33015665 43.77152746 4.50531294 41.71718824 2.875 39 C-1.23034242 36.53679455 -4.14099475 36.97078394 -7.375 40.375 Z " fill="#2C2C2C" transform="translate(396,262.125)"/>
<path d="M0 0 C1.05960937 0.56589844 2.11921875 1.13179688 3.2109375 1.71484375 C4.59895102 2.45574286 5.98697226 3.19662753 7.375 3.9375 C8.07367188 4.31068359 8.77234375 4.68386719 9.4921875 5.06835938 C13.22879122 7.06747892 13.22879122 7.06747892 17 9 C17 8.34 17 7.68 17 7 C21.75 7.875 21.75 7.875 24 9 C23.67 10.65 23.34 12.3 23 14 C23.99 14.33 24.98 14.66 26 15 C28.50304378 18.75456567 28.45280074 20.54745934 28 25 C26.25 28.4375 26.25 28.4375 24 31 C22.68 31 21.36 31 20 31 C18.875 28.75 18.875 28.75 18 26 C18.875 23.6875 18.875 23.6875 20 22 C19.34 21.67 18.68 21.34 18 21 C17.34 22.32 16.68 23.64 16 25 C15.34 25 14.68 25 14 25 C13.73781251 28.14624993 13.75245633 29.61837017 15.5 32.3125 C15.995 32.869375 16.49 33.42625 17 34 C15.68 35.98 14.36 37.96 13 40 C11.02 39.34 9.04 38.68 7 38 C6.01 38.99 5.02 39.98 4 41 C1.53199953 39.84826645 -0.04783565 38.95216435 -2 37 C-1.01 35.35 -0.02 33.7 1 32 C-0.09758507 31.15801693 -1.20335317 30.32669329 -2.3125 29.5 C-2.92738281 29.0359375 -3.54226563 28.571875 -4.17578125 28.09375 C-6.07433005 26.74288717 -6.07433005 26.74288717 -9 27 C-9.66 27.99 -10.32 28.98 -11 30 C-12.98 29.67 -14.96 29.34 -17 29 C-16.73701637 25.2305679 -16.16190154 23.22568093 -13.9375 20.125 C-10.8934243 17.92290269 -8.96666839 17.21785478 -5.1953125 17.42578125 C-1.57413684 18.37295709 1.15619365 20.45901682 4.1171875 22.6875 C5.89092763 24.19062069 5.89092763 24.19062069 8 24 C8.99 21.69 9.98 19.38 11 17 C6.05 14.03 1.1 11.06 -4 8 C-3.07377893 4.29511572 -2.32789515 2.83395931 0 0 Z " fill="#2C2C2C" transform="translate(375,316)"/>
<path d="M0 0 C0.92103516 -0.03738281 1.84207031 -0.07476562 2.79101562 -0.11328125 C9.30811594 -0.19653732 13.86661425 0.97685702 18.8125 5.375 C22.18108167 10.74367703 22.67693108 16.19481456 21.8125 22.375 C20.69835375 26.06079201 19.1340946 28.47002499 15.94140625 30.65625 C9.64939029 33.98661761 3.49650748 34.55609968 -3.5 34.9375 C-4.24056641 34.98068359 -4.98113281 35.02386719 -5.74414062 35.06835938 C-7.55841464 35.17370432 -9.3729355 35.27478316 -11.1875 35.375 C-11.52794412 31.58393744 -11.85852759 27.79207386 -12.1875 24 C-12.28289062 22.93910156 -12.37828125 21.87820312 -12.4765625 20.78515625 C-13.03399792 14.29501533 -13.31882994 7.88860014 -13.1875 1.375 C-8.81868631 -0.08127123 -4.57804833 0.06903157 0 0 Z M-4.1875 7.375 C-3.8575 13.975 -3.5275 20.575 -3.1875 27.375 C-1.62 27.25125 -0.0525 27.1275 1.5625 27 C2.44421875 26.93039063 3.3259375 26.86078125 4.234375 26.7890625 C6.8637314 26.36677193 8.57587938 25.80449231 10.8125 24.375 C12.82946222 21.34955666 13.07061096 20.76432618 13 17.375 C12.99355469 16.694375 12.98710937 16.01375 12.98046875 15.3125 C12.72084916 12.31781823 12.18550141 10.71070127 9.9375 8.6875 C5.18809902 6.69275159 0.9396162 7.18968255 -4.1875 7.375 Z " fill="#232323" transform="translate(234.1875,74.625)"/>
<path d="M0 0 C5.41136757 2.52474381 9.64200209 6.03600309 13 11 C11 14 11 14 8.375 14.6875 C7.59125 14.790625 6.8075 14.89375 6 15 C5.29875 14.030625 4.5975 13.06125 3.875 12.0625 C1.81639925 9.59451842 1.05627436 9.01913328 -2.125 7.9375 C-5.01331947 7.71694924 -5.01331947 7.71694924 -6.875 9.4375 C-7.24625 9.953125 -7.6175 10.46875 -8 11 C-6.783125 11.061875 -5.56625 11.12375 -4.3125 11.1875 C0.17383464 11.72840559 2.14764741 13.45616799 5 17 C6.73591152 20.47182303 6.46571673 24.20408964 6 28 C3.91290815 32.09964471 2.23603195 34.28541564 -2 36 C-6.77433473 36.74653234 -10.16918186 36.45317353 -14.4375 34.125 C-17 32 -17 32 -19 30 C-19.825 29.835 -20.65 29.67 -21.5 29.5 C-24 29 -24 29 -26 27 C-24.93295223 18.77848436 -18.11581892 6.80968363 -12.109375 1.25 C-8.22477835 -1.0519832 -4.35096648 -0.78992656 0 0 Z M-12.8125 18.1875 C-14.42525784 20.64907776 -14.4334014 22.11065736 -14 25 C-12.56199129 27.01321219 -11.32582099 27.8370895 -9.125 28.9375 C-5.83094446 29.03438399 -4.33960225 27.1446354 -2 25 C-2.35994553 22.3364031 -2.71161002 20.41816548 -4.25 18.1875 C-7.23034372 16.1651239 -9.81579053 16.22413862 -12.8125 18.1875 Z " fill="#242424" transform="translate(183,365)"/>
<path d="M0 0 C4.18544914 0.51103237 7.73183568 2.87412826 11.375 4.875 C12.67407659 5.58146994 13.97355106 6.28720877 15.2734375 6.9921875 C15.89702148 7.33088867 16.52060547 7.66958984 17.16308594 8.01855469 C19.74864902 9.39999589 22.37010603 10.70540823 25 12 C23.84826645 14.46800047 22.95216435 16.04783565 21 18 C17.22254703 17.65082368 14.4361522 16.32850651 11.1875 14.4375 C10.39730469 13.98246094 9.60710937 13.52742188 8.79296875 13.05859375 C8.20128906 12.70925781 7.60960937 12.35992187 7 12 C7.20496094 12.66386719 7.40992188 13.32773437 7.62109375 14.01171875 C7.89050781 14.89472656 8.15992188 15.77773438 8.4375 16.6875 C8.70433594 17.55761719 8.97117187 18.42773438 9.24609375 19.32421875 C10.68954047 24.44733276 10.68954047 24.44733276 11 27 C9.0625 29.3125 9.0625 29.3125 7 31 C2.02790438 29.23570801 -2.43438061 26.6060834 -7 24 C-6.79503906 24.66386719 -6.59007812 25.32773437 -6.37890625 26.01171875 C-6.10949219 26.89472656 -5.84007812 27.77773438 -5.5625 28.6875 C-5.16224609 29.99267578 -5.16224609 29.99267578 -4.75390625 31.32421875 C-3.32596042 36.39231665 -3.32596042 36.39231665 -3 39 C-4.8125 41.3125 -4.8125 41.3125 -7 43 C-7.66 43 -8.32 43 -9 43 C-10.32558382 39.81778809 -11.63303547 36.62842092 -12.9375 33.4375 C-13.31068359 32.54224609 -13.68386719 31.64699219 -14.06835938 30.72460938 C-16.06473677 25.81460011 -17.83332075 21.33373585 -18 16 C-15.5625 13.5625 -15.5625 13.5625 -13 12 C-8.49487506 13.68942185 -4.2840266 15.82168139 0 18 C-1.65 13.71 -3.3 9.42 -5 5 C-2.75 2.4375 -2.75 2.4375 0 0 Z " fill="#292929" transform="translate(352,348)"/>
<path d="M0 0 C3.75045637 0.30717257 7.50026422 0.62166204 11.25 0.9375 C12.31347656 1.02451172 13.37695312 1.11152344 14.47265625 1.20117188 C16.00986328 1.33168945 16.00986328 1.33168945 17.578125 1.46484375 C18.52075195 1.543396 19.46337891 1.62194824 20.43457031 1.70288086 C22.70749522 1.96612311 24.80075595 2.38231108 27 3 C26.6915011 7.35445976 26.37748884 11.70850527 26.0625 16.0625 C25.97548828 17.29162109 25.88847656 18.52074219 25.79882812 19.78710938 C25.37852487 25.56238737 24.94264196 31.28470232 24 37 C20.22865439 36.69349173 16.45803873 36.37876767 12.6875 36.0625 C11.61564453 35.97548828 10.54378906 35.88847656 9.43945312 35.79882812 C8.41142578 35.71181641 7.38339844 35.62480469 6.32421875 35.53515625 C5.37635498 35.456604 4.42849121 35.37805176 3.4519043 35.29711914 C1 35 1 35 -2 34 C-1.67 31.69 -1.34 29.38 -1 27 C1.27113803 27.14100857 3.54190725 27.28796755 5.8125 27.4375 C7.07707031 27.51871094 8.34164062 27.59992188 9.64453125 27.68359375 C13 28 13 28 16 29 C15.67 27.02 15.34 25.04 15 23 C10.38 22.34 5.76 21.68 1 21 C1.33 18.69 1.66 16.38 2 14 C3.93784265 14.14120714 5.87526955 14.28812873 7.8125 14.4375 C8.89144531 14.51871094 9.97039062 14.59992188 11.08203125 14.68359375 C14 15 14 15 17 16 C17.33 13.69 17.66 11.38 18 9 C16.86820313 8.93941406 15.73640625 8.87882812 14.5703125 8.81640625 C13.08852855 8.73200083 11.6067584 8.64735283 10.125 8.5625 C9.37863281 8.52318359 8.63226563 8.48386719 7.86328125 8.44335938 C2.2265625 8.11328125 2.2265625 8.11328125 0 7 C0 4.69 0 2.38 0 0 Z " fill="#262626" transform="translate(221,390)"/>
<path d="M0 0 C1.9375 0.6875 1.9375 0.6875 4 2 C4.144375 2.78375 4.28875 3.5675 4.4375 4.375 C5.2106278 7.98292974 7.12064527 8.82292691 10 11 C12.74620631 15.40339978 12.78586355 19.96729809 12 25 C9.99874715 28.90682827 7.03408429 31.3459506 3 33 C-1.22699682 33.5822518 -4.92095837 33.44569111 -8.875 31.8125 C-12.56992624 28.66094526 -13.83169105 25.6732358 -15 21 C-17.64 22.65 -20.28 24.3 -23 26 C-25.87402727 23.4041044 -27.24432948 21.78630702 -28 18 C-26.80117188 17.27296875 -26.80117188 17.27296875 -25.578125 16.53125 C-17.92577626 11.86080241 -10.42771395 7.02254943 -3 2 C-2.01 1.34 -1.02 0.68 0 0 Z M-9 9 C-9 9.66 -9 10.32 -9 11 C-7.68 10.67 -6.36 10.34 -5 10 C-6.32 9.67 -7.64 9.34 -9 9 Z M-7 15 C-8.31534788 16.10649557 -8.31534788 16.10649557 -8.3125 18.875 C-8.29442667 22.01831681 -8.29442667 22.01831681 -6.375 23.9375 C-3.06615028 25.41777488 -1.39661004 25.22856108 2 24 C4.24196152 21.34946988 4.24196152 21.34946988 5 18 C3.86268055 14.98944852 2.98120718 13.52331049 0.125 12 C-2.90392973 12 -4.56385788 13.28811635 -7 15 Z " fill="#262626" transform="translate(381,147)"/>
<path d="M0 0 C3.24670791 1.52396494 4.42372933 2.62646166 5.8046875 5.91796875 C7.52949152 11.93348894 6.61436746 17.05167681 5 23 C7.31 23.66 9.62 24.32 12 25 C12.125 31.75 12.125 31.75 11 34 C3.17675331 32.78434806 -4.17820898 30.86292672 -11.6875 28.375 C-12.68716797 28.05015625 -13.68683594 27.7253125 -14.71679688 27.390625 C-17.14666931 26.6000445 -19.57425147 25.80312595 -22 25 C-21.43022658 22.47541883 -20.8447278 19.95621661 -20.25 17.4375 C-20.09273438 16.73302734 -19.93546875 16.02855469 -19.7734375 15.30273438 C-17.00109673 3.73354308 -12.35534176 -1.39291554 0 0 Z M-9.6875 9 C-11.73284894 12.1167222 -12.22537147 15.36520458 -13 19 C-9.12315913 20.19287411 -6.08378077 21 -2 21 C-1.77754607 19.39773045 -1.57253331 17.79303233 -1.375 16.1875 C-1.25898437 15.29417969 -1.14296875 14.40085938 -1.0234375 13.48046875 C-0.76499257 10.74309609 -0.76499257 10.74309609 -3 8 C-5.71702352 7.58199638 -7.30218294 7.58647878 -9.6875 9 Z " fill="#1F1F1F" transform="translate(98,190)"/>
<path d="M0 0 C0 0.66 0 1.32 0 2 C0.57234375 2.24492187 1.1446875 2.48984375 1.734375 2.7421875 C4.38024402 4.21110099 6.14853139 5.95348244 8.25 8.125 C8.95640625 8.84945312 9.6628125 9.57390625 10.390625 10.3203125 C10.92171875 10.87460938 11.4528125 11.42890625 12 12 C10.47427344 15.32635882 9.06655496 16.95563002 6 19 C4.93513145 18.10698344 3.87324959 17.2104053 2.8125 16.3125 C2.17054688 15.77109375 1.52859375 15.2296875 0.8671875 14.671875 C-1 13 -1 13 -3.5625 10.0625 C-5.89080963 7.61274062 -5.89080963 7.61274062 -9.3125 8.1875 C-10.199375 8.455625 -11.08625 8.72375 -12 9 C-10.96590469 15.20457187 -8.40449578 18.01944324 -3.77734375 22.203125 C-2 24 -2 24 -1 27 C-2.375 28.5 -2.375 28.5 -4 30 C-4.66 30 -5.32 30 -6 30 C-6.33 30.66 -6.66 31.32 -7 32 C-10.89298459 28.90330771 -13.94057176 25.94764934 -17 22 C-19.45979696 19.47713133 -21.97723584 17.02219505 -24.5 14.5625 C-27.17643205 11.81915715 -29.58158375 8.97119711 -32 6 C-30.35 4.35 -28.7 2.7 -27 1 C-23.63408134 2.44253657 -21.48952921 4.33264727 -19 7 C-18.62488281 6.51789063 -18.24976563 6.03578125 -17.86328125 5.5390625 C-12.06947431 -1.61198384 -8.77813951 -2.67807646 0 0 Z " fill="#2B2B2B" transform="translate(147,126)"/>
<path d="M0 0 C5.4163511 1.03168592 7.79467881 3.40633789 10.79296875 7.7890625 C13.09947894 12.0139323 13.68721346 15.51442923 12.3984375 20.17578125 C10.73995035 24.12009635 9.41807789 25.74757561 5.6875 28 C0.35767993 29.44537493 -3.14289372 29.91034622 -8.1875 27.4375 C-12.5535185 23.6536173 -14.59060164 20.25169098 -15.625 14.5625 C-14.78948435 9.80006078 -12.64354839 6.21735351 -9 3 C-7.68 3 -6.36 3 -5 3 C-3.21425957 5.31791473 -1.73117706 7.50081525 -0.25 10 C0.36681641 11.00160156 0.36681641 11.00160156 0.99609375 12.0234375 C2.01028343 13.67444395 3.00684598 15.3362548 4 17 C3.70027714 13.56752495 3.70027714 13.56752495 3 10 C0.5748212 8.00916823 0.5748212 8.00916823 -2 7 C-1.34 4.69 -0.68 2.38 0 0 Z M-7 12 C-7.76716851 14.85078091 -7.76716851 14.85078091 -8 18 C-6.95625978 20.04451019 -6.95625978 20.04451019 -5 21 C-2.9094686 20.6037997 -2.9094686 20.6037997 -1 20 C-1.80814651 18.66402348 -2.62163181 17.331275 -3.4375 16 C-4.11619141 14.88625 -4.11619141 14.88625 -4.80859375 13.75 C-5.39833984 12.88375 -5.39833984 12.88375 -6 12 C-6.33 12 -6.66 12 -7 12 Z " fill="#2C2C2C" transform="translate(120,320)"/>
<path d="M0 0 C4.03109456 3.24727062 6.05213924 6.20134812 6.6875 11.375 C6.23045601 14.96605989 5.3600351 16.91120173 3.25 19.8125 C-3.21567022 18.40691952 -8.20752952 15.35878896 -13.75 11.8125 C-11.95793812 15.49262648 -11.95793812 15.49262648 -8.70703125 17.73828125 C-7.64548828 17.92970703 -7.64548828 17.92970703 -6.5625 18.125 C-5.304375 18.351875 -4.04625 18.57875 -2.75 18.8125 C-2.42 21.1225 -2.09 23.4325 -1.75 25.8125 C-7.20357742 26.25768999 -11.57653134 26.22212814 -16.2421875 23.140625 C-20.00385677 19.82723756 -21.51314057 16.2599743 -22.3125 11.375 C-21.56919608 6.66740849 -19.90762341 3.37836495 -16.75 -0.1875 C-11.28077685 -3.22595731 -5.57203374 -2.40610548 0 0 Z M-8.75 4.8125 C-9.41 5.4725 -10.07 6.1325 -10.75 6.8125 C-9.46186658 7.65128455 -8.16936744 8.48336783 -6.875 9.3125 C-6.15570313 9.7765625 -5.43640625 10.240625 -4.6953125 10.71875 C-2.83139534 11.97586501 -2.83139534 11.97586501 -0.75 11.8125 C-1.82401108 8.89732708 -2.52810176 7.03439824 -4.75 4.8125 C-6.07 4.8125 -7.39 4.8125 -8.75 4.8125 Z " fill="#2C2C2C" transform="translate(332.75,103.1875)"/>
<path d="M0 0 C3.59059983 0.99738884 4.91172765 1.88720756 7.25 4.875 C9.96828394 9.72907847 10.47475845 13.39785023 10 19 C8.68313295 22.54981553 7.04242132 25.31498027 3.8125 27.4375 C-1.25554609 28.45110922 -5.95325843 28.81869663 -10.8125 26.875 C-14.29153365 23.89297115 -16.56729932 21.24116764 -17.45703125 16.6328125 C-17.76854055 11.86599584 -17.33005498 8.72698765 -14.3125 4.9375 C-11.7727861 2.14840851 -9.71118044 1.51210497 -6 1 C-5.66226563 1.81984375 -5.32453125 2.6396875 -4.9765625 3.484375 C-4.53054687 4.56203125 -4.08453125 5.6396875 -3.625 6.75 C-3.18414062 7.81734375 -2.74328125 8.8846875 -2.2890625 9.984375 C-1.26692415 12.37555926 -0.19786405 14.69383183 1 17 C2.46726798 13.18510326 1.43336419 10.70988378 0 7 C-0.66 7 -1.32 7 -2 7 C-1.125 1.125 -1.125 1.125 0 0 Z M-9 11 C-10.29042763 13.26601865 -10.29042763 13.26601865 -11 16 C-9.94106029 18.38442803 -9.94106029 18.38442803 -8 20 C-7.01 20 -6.02 20 -5 20 C-5.28151087 18.68528432 -5.57553339 17.37324233 -5.875 16.0625 C-6.11863281 14.96615234 -6.11863281 14.96615234 -6.3671875 13.84765625 C-6.82961523 11.79299706 -6.82961523 11.79299706 -9 11 Z " fill="#2B2B2B" transform="translate(109,295)"/>
<path d="M0 0 C5.36161168 4.61347981 7.83163271 11.37494588 10 18 C10 19.32 10 20.64 10 22 C7.09399739 23.25664978 5.20395416 24 2 24 C1.61328125 22.92878906 1.2265625 21.85757813 0.828125 20.75390625 C0.30291022 19.35645978 -0.22317694 17.95934096 -0.75 16.5625 C-1.00265625 15.85544922 -1.2553125 15.14839844 -1.515625 14.41992188 C-2.92158048 10.48236133 -2.92158048 10.48236133 -6.015625 7.90234375 C-8.32468252 7.84585979 -8.32468252 7.84585979 -11 10 C-12.07122281 15.96824139 -9.17085977 21.55346789 -7 27 C-8.1875 28.5 -8.1875 28.5 -10 30 C-12.6875 30.1875 -12.6875 30.1875 -15 30 C-24 10.89320388 -24 10.89320388 -24 6 C-21.85622511 4.80901395 -20.12209394 4.01979902 -17.6875 3.625 C-14.74819891 3.09973418 -14.74819891 3.09973418 -11.6875 0.875 C-7.67510077 -1.50271806 -4.35965638 -1.68671695 0 0 Z " fill="#2A2A2A" transform="translate(199,92)"/>
<path d="M0 0 C4.3604287 2.22135047 7.20212362 4.40542702 9 9 C9.69174748 14.09843511 9.57115809 17.85768383 7.25 22.5 C5.16409967 24.81766703 3.93358541 26.05368212 1 27 C0.01 27 -0.98 27 -2 27 C-2.79311367 25.27149655 -3.5844259 23.54216646 -4.375 21.8125 C-4.81585938 20.84957031 -5.25671875 19.88664062 -5.7109375 18.89453125 C-6.87321851 16.28468208 -7.95924781 13.66024041 -9 11 C-10.46399077 14.80637601 -9.62336757 17.34742296 -8 21 C-7.01 21.33 -6.02 21.66 -5 22 C-5.66 23.98 -6.32 25.96 -7 28 C-10.39461728 27.71711523 -11.74132059 27.25867941 -14.1875 24.8125 C-17.54401075 19.60412126 -18.52388747 15.28221198 -17.6796875 9.1875 C-16.53314626 5.49748221 -14.12515072 3.17672189 -11 1 C-7.27148658 -0.24283781 -3.87253239 -0.5280726 0 0 Z M-3 8 C-2.39009109 11.55780196 -1.4216319 14.6828589 0 18 C1.66621425 16.8354799 1.66621425 16.8354799 3 15 C2.75546876 11.65807308 2.39456443 10.39456443 0 8 C-0.99 8 -1.98 8 -3 8 Z " fill="#2A2A2A" transform="translate(397,178)"/>
<path d="M0 0 C2.99324263 1.0975223 3.84610901 1.67682892 5.25 4.625 C5.4975 5.40875 5.745 6.1925 6 7 C3.46945422 10.10895624 1.12522245 12.88838868 -1.875 15.5625 C-4.34456667 17.81635342 -4.34456667 17.81635342 -3.8125 20.8125 C-3.544375 21.534375 -3.27625 22.25625 -3 23 C-0.760165 23.95020416 -0.760165 23.95020416 2 24 C4.70848923 21.62494782 4.70848923 21.62494782 7 19 C7.66 19 8.32 19 9 19 C9.268125 18.38125 9.53625 17.7625 9.8125 17.125 C11 15 11 15 14 13 C15.65 14.65 17.3 16.3 19 18 C17.81267459 22.15563893 15.96397777 24.12021144 12.578125 26.75 C10.19019902 28.64142652 8.12436909 30.82115991 6 33 C4.33333333 34.66666667 2.66666667 36.33333333 1 38 C0.67 37.34 0.34 36.68 0 36 C-0.66 36 -1.32 36 -2 36 C-2.226875 35.236875 -2.45375 34.47375 -2.6875 33.6875 C-4.29949457 30.38674921 -5.82534664 29.73850065 -9 28 C-12.03594158 25.21705355 -13.7514501 23.49129943 -14.4375 19.375 C-13.55070184 12.53398562 -7.83915264 7.57757683 -3 3 C-2.401875 2.401875 -1.80375 1.80375 -1.1875 1.1875 C-0.795625 0.795625 -0.40375 0.40375 0 0 Z " fill="#272727" transform="translate(137,340)"/>
<path d="M0 0 C3.31601886 2.35947496 4.79668418 3.5509767 6.25 7.3125 C6.8158258 11.23343371 6.66103419 14.330585 5.125 18 C1.0271446 23.05402166 -2.8843237 25.9781711 -9.5 26.75 C-13.93646898 26.7008878 -16.23025236 24.99108844 -19.3359375 21.94921875 C-22.44073856 18.35554017 -22.77558811 16.11852548 -22.625 11.375 C-21.93832168 7.23932373 -20.5610024 4.49337114 -17.75 1.3125 C-11.78739801 -2.06255773 -6.23476209 -3.22216696 0 0 Z M-11.375 6.4375 C-13.88440773 8.12084779 -13.88440773 8.12084779 -14.8125 10.6875 C-14.72494057 14.36499617 -13.30398915 15.75851085 -10.75 18.3125 C-7.78287217 19.67063363 -7.78287217 19.67063363 -5.125 18.1875 C-2.61559227 16.50415221 -2.61559227 16.50415221 -1.6875 13.9375 C-1.77505943 10.26000383 -3.19601085 8.86648915 -5.75 6.3125 C-8.71712783 4.95436637 -8.71712783 4.95436637 -11.375 6.4375 Z " fill="#292929" transform="translate(172.75,107.6875)"/>
<path d="M0 0 C3.52017393 2.05529143 5.33193246 4.29916198 7 8 C8.10555862 12.47090686 8.11362901 16.14283017 5.70703125 20.15625 C2.92674815 23.50631951 0.86295813 25.80477984 -3.609375 26.2734375 C-13.14405977 26.58177308 -13.14405977 26.58177308 -16.6875 24 C-19.68294495 20.11401736 -19.83582405 17.84319039 -20 13 C-19.10796875 12.79503906 -18.2159375 12.59007812 -17.296875 12.37890625 C-16.12640625 12.10949219 -14.9559375 11.84007812 -13.75 11.5625 C-12.58984375 11.29566406 -11.4296875 11.02882813 -10.234375 10.75390625 C-7.81650239 10.19032 -5.40556696 9.61330049 -3 9 C-4.21443275 7.56172744 -4.21443275 7.56172744 -7.8125 7.8125 C-11.03540201 7.8414309 -13.25544723 8.17029815 -16 10 C-17.32 9.01 -18.64 8.02 -20 7 C-19.8125 5.1875 -19.8125 5.1875 -19 3 C-13.26570299 -1.30864306 -6.86058447 -1.20374934 0 0 Z M-12 17 C-10.89958081 18.68681738 -10.89958081 18.68681738 -9 20 C-5.91004903 20.08223366 -5.91004903 20.08223366 -3 19 C-1.56362302 17.04836882 -1.56362302 17.04836882 -1 15 C-5.08718695 14.75957724 -8.17679443 15.57741188 -12 17 Z " fill="#2A2A2A" transform="translate(284,390)"/>
<path d="M0 0 C2.5625 2.0625 2.5625 2.0625 4 5 C4.25 8.4375 4.25 8.4375 3 12 C-3.03947368 18 -3.03947368 18 -7 18 C-6.67 18.66 -6.34 19.32 -6 20 C-0.96014269 19.55530671 1.37634988 17.28656638 5 14 C6.32 14.99 7.64 15.98 9 17 C8.31754727 21.77716908 5.44479032 23.81017268 1.875 26.75 C-2.45715397 28.63354521 -6.36850379 29.01267441 -11 28 C-16.45814361 24.31398094 -19.64660889 16.95637043 -22 11 C-22 10.01 -22 9.02 -22 8 C-18.77208445 5.8480563 -17.71599191 5.79913557 -14 6 C-13.62875 5.071875 -13.62875 5.071875 -13.25 4.125 C-10.43656507 -0.65783939 -5.09683473 -1.00060559 0 0 Z M-10.25 9 C-10.8275 9.66 -11.405 10.32 -12 11 C-11.67 11.99 -11.34 12.98 -11 14 C-9.02 13.34 -7.04 12.68 -5 12 C-4.67 10.35 -4.34 8.7 -4 7 C-8.00346023 6.55709077 -8.00346023 6.55709077 -10.25 9 Z " fill="#292929" transform="translate(329,372)"/>
<path d="M0 0 C4.1276867 1.87622123 5.62018795 3.36289592 7.9375 7.25 C9.59461198 13.09863051 9.08172801 16.95244341 6.25 22.3125 C3.41014169 25.70455298 1.36429157 27.64535627 -3.109375 28.31640625 C-7.18959937 28.52863269 -9.64273195 28.17201795 -13.375 26.375 C-17.34730892 22.78100622 -18.80497277 19.82025411 -19.375 14.5 C-18.79706513 9.10594118 -17.02123725 6.14577838 -13.4375 2.125 C-9.36091907 -1.01630551 -4.90449108 -0.84532692 0 0 Z M-10.375 10.5 C-10.91125 11.325 -11.4475 12.15 -12 13 C-10.75023244 16.65316671 -10.32901247 17.78065836 -7 20 C-2.49149818 19.65554402 -2.49149818 19.65554402 1 17 C1.33015665 13.89652746 1.50531294 11.84218824 -0.125 9.125 C-4.23034242 6.66179455 -7.14099475 7.09578394 -10.375 10.5 Z " fill="#262626" transform="translate(399,292)"/>
<path d="M0 0 C4.07988795 2.25467492 6.89339895 4.86769686 8.375 9.3125 C8.7747385 13.84799454 8.88980011 17.96829971 7.25 22.25 C4.41022914 25.37374794 1.60504364 26.99329768 -2.6171875 27.59765625 C-7.19535706 27.79633153 -10.04383598 27.11935829 -13.625 24.3125 C-14.5325 23.61125 -15.44 22.91 -16.375 22.1875 C-19.41046075 18.30885571 -19.89186422 15.17443252 -19.625 10.3125 C-18.4712639 5.91388112 -17.17259269 3.32119709 -13.375 0.875 C-8.86418603 -1.34234104 -4.82985338 -1.2649616 0 0 Z M-9.4375 8.5 C-10.98030428 10.85480653 -11.4874874 12.49349161 -11.625 15.3125 C-10.29346734 17.61754044 -10.29346734 17.61754044 -8.625 19.3125 C-3.47551253 19.10005494 -3.47551253 19.10005494 0.4375 16.0625 C1.65570435 13.33001086 1.65570435 13.33001086 0.625 10.5625 C-0.43612922 8.40979707 -0.43612922 8.40979707 -1.625 7.3125 C-5.75044271 6.91018561 -5.75044271 6.91018561 -9.4375 8.5 Z " fill="#282828" transform="translate(364.625,127.6875)"/>
<path d="M0 0 C2.87783681 2.37764136 3.90195524 4.08099499 4.375 7.82421875 C4.38916003 10.57126456 4.27826939 13.24702163 4.015625 15.98046875 C-2.5352735 15.52286922 -8.6597592 14.77045435 -14.984375 12.98046875 C-13.82753171 15.08002205 -13.82753171 15.08002205 -11.984375 16.98046875 C-9.56853747 17.31421152 -9.56853747 17.31421152 -6.984375 16.98046875 C-4.359375 16.73046875 -4.359375 16.73046875 -1.984375 16.98046875 C-0.109375 18.79296875 -0.109375 18.79296875 1.015625 20.98046875 C0.015625 23.98046875 0.015625 23.98046875 -1.984375 24.98046875 C-7.95122027 25.70566994 -13.48076106 25.95001584 -18.671875 22.60546875 C-21.62555408 20.00253906 -22.6028691 17.92524861 -23.171875 14.04296875 C-23.27307533 9.2431818 -22.42454859 6.10352067 -19.984375 1.98046875 C-14.71341717 -3.12045819 -6.39344252 -3.28481988 0 0 Z M-12.921875 6.41796875 C-13.2725 6.93359375 -13.623125 7.44921875 -13.984375 7.98046875 C-8.54832312 9.47896943 -8.54832312 9.47896943 -2.984375 9.98046875 C-3.314375 8.66046875 -3.644375 7.34046875 -3.984375 5.98046875 C-8.70268876 4.7208616 -8.70268876 4.7208616 -12.921875 6.41796875 Z " fill="#2A2A2A" transform="translate(280.984375,85.01953125)"/>
<path d="M0 0 C2.97 0.33 5.94 0.66 9 1 C8.79503906 1.79664063 8.59007812 2.59328125 8.37890625 3.4140625 C8.10949219 4.47367187 7.84007812 5.53328125 7.5625 6.625 C7.29566406 7.66914063 7.02882812 8.71328125 6.75390625 9.7890625 C6.03547461 12.84891124 5.48023284 15.8948051 5 19 C7.84826598 21.36692966 7.84826598 21.36692966 11.1875 20.625 C12.5796875 20.315625 12.5796875 20.315625 14 20 C14.12117188 19.41992188 14.24234375 18.83984375 14.3671875 18.2421875 C15.33735474 13.71971558 16.43397783 9.36249034 18 5 C23.75 5.875 23.75 5.875 26 7 C24.63353125 15.6678988 21.88315195 23.74670244 19 32 C13.25 31.125 13.25 31.125 11 30 C11 29.34 11 28.68 11 28 C10.41992188 28.05800781 9.83984375 28.11601562 9.2421875 28.17578125 C5.18035183 28.41037572 1.88357621 28.48023194 -1.5625 26.125 C-4.48202919 22.38201386 -4.74207944 20.53964706 -4.4765625 15.9140625 C-3.58048985 10.4347986 -1.83545627 5.22777276 0 0 Z " fill="#272727" transform="translate(194,383)"/>
<path d="M0 0 C2 1.375 2 1.375 4 3 C4 3.66 4 4.32 4 5 C4.66 5 5.32 5 6 5 C8.89533617 8.13835 11.39294336 11.62097227 14 15 C14.83402344 16.00804687 15.66804688 17.01609375 16.52734375 18.0546875 C23.5788345 26.81056701 23.5788345 26.81056701 23.875 31.375 C22.78176033 35.90413576 21.26222785 37.73777215 18 41 C15.35906923 40.6478759 14.28151642 40.34271564 12.5625 38.25 C12 36 12 36 13.375 33.4375 C13.91125 32.633125 14.4475 31.82875 15 31 C15 30.01 15 29.02 15 28 C14.21238281 28.01160156 13.42476562 28.02320313 12.61328125 28.03515625 C-8.57857974 28.21071013 -8.57857974 28.21071013 -13 26 C-11.125 20.125 -11.125 20.125 -10 19 C-7.30345146 18.92680379 -4.63308542 18.90757463 -1.9375 18.9375 C-1.17888672 18.94201172 -0.42027344 18.94652344 0.36132812 18.95117188 C2.24091871 18.9629932 4.12046899 18.98092922 6 19 C5.34 18.21625 4.68 17.4325 4 16.625 C2 14 2 14 2 12 C1.01 11.67 0.02 11.34 -1 11 C-3 8 -3 8 -2.75 5.5 C-2 3 -2 3 0 0 Z M-5 24 C-2.00519083 24.8723412 0.63575911 25.10829766 3.75 25.0625 C4.94882813 25.04896484 4.94882813 25.04896484 6.171875 25.03515625 C7.07679687 25.01775391 7.07679687 25.01775391 8 25 C7.67 24.01 7.34 23.02 7 22 C5.5629191 21.94577053 4.12524538 21.90710277 2.6875 21.875 C1.48673828 21.84019531 1.48673828 21.84019531 0.26171875 21.8046875 C-2.28388576 21.84182678 -2.28388576 21.84182678 -5 24 Z " fill="#2F2F2F" transform="translate(106,160)"/>
<path d="M0 0 C2.64 0.66 5.28 1.32 8 2 C8.66 7.61 9.32 13.22 10 19 C11.464375 17.39125 12.92875 15.7825 14.4375 14.125 C15.67306641 12.76761719 15.67306641 12.76761719 16.93359375 11.3828125 C19.00907942 9.18862073 19.00907942 9.18862073 20 7 C22.64 7.66 25.28 8.32 28 9 C26.58581617 13.26560884 24.51748869 16.0059986 21.5 19.3125 C20.7059375 20.19550781 19.911875 21.07851562 19.09375 21.98828125 C17 24 17 24 15 24 C14.7525 24.598125 14.505 25.19625 14.25 25.8125 C12.73384379 28.46577338 11.76512942 29.65480191 9 31 C5.25 30.1875 5.25 30.1875 2 29 C1.19070518 25.39129392 0.82185917 21.95538062 0.68359375 18.26171875 C0.64169922 17.19501953 0.59980469 16.12832031 0.55664062 15.02929688 C0.51732422 13.92650391 0.47800781 12.82371094 0.4375 11.6875 C0.39431641 10.56537109 0.35113281 9.44324219 0.30664062 8.28710938 C0.20085213 5.52485431 0.09876328 2.7625137 0 0 Z " fill="#2A2A2A" transform="translate(289,86)"/>
<path d="M0 0 C2.4375 0.8125 2.4375 0.8125 5 2 C6 5 6 5 5.0625 7.1875 C4.5365625 8.0846875 4.5365625 8.0846875 4 9 C5.09758507 9.84198307 6.20335317 10.67330671 7.3125 11.5 C7.92738281 11.9640625 8.54226562 12.428125 9.17578125 12.90625 C11.07433005 14.25711283 11.07433005 14.25711283 14 14 C14.66 13.01 15.32 12.02 16 11 C18.97 11.495 18.97 11.495 22 12 C21.56472003 16.93317299 19.6217405 19.68649274 16 23 C10.026833 24.33881329 7.11427335 22.72764552 2 19.5 C0.32142116 18.3505384 -1.349454 17.18936403 -3 16 C-3 16.66 -3 17.32 -3 18 C-4.65 17.67 -6.3 17.34 -8 17 C-8.433125 15.2984375 -8.433125 15.2984375 -8.875 13.5625 C-9.24625 12.386875 -9.6175 11.21125 -10 10 C-10.66 9.67 -11.32 9.34 -12 9 C-10.8141763 5.62496331 -9.72426311 3.35277269 -7 1 C-5.68 1.99 -4.36 2.98 -3 4 C-2.01 2.68 -1.02 1.36 0 0 Z " fill="#2C2C2C" transform="translate(117,145)"/>
<path d="M0 0 C3.465 1.98 3.465 1.98 7 4 C5.56503929 8.32056476 3.41188293 11.14126142 0.4375 14.5625 C-4.66231565 20.50946735 -9.36458528 26.68508719 -14 33 C-18.67692308 31.52307692 -18.67692308 31.52307692 -20.3125 28.875 C-20.539375 28.25625 -20.76625 27.6375 -21 27 C-20.39414062 26.21238281 -19.78828125 25.42476562 -19.1640625 24.61328125 C-18.76372803 24.09282227 -18.36339355 23.57236328 -17.95092773 23.03613281 C-17.05990865 21.87785722 -16.16879388 20.71965523 -15.27758789 19.56152344 C-12.89766806 16.46850493 -10.51939591 13.37424585 -8.14453125 10.27734375 C-7.46366455 9.39018677 -7.46366455 9.39018677 -6.76904297 8.48510742 C-5.89118272 7.34118502 -5.01389066 6.19682634 -4.13720703 5.05200195 C-1.11243241 1.11243241 -1.11243241 1.11243241 0 0 Z " fill="#2E2E2E" transform="translate(353,106)"/>
<path d="M0 0 C1.33834986 3.78991493 2.66982663 7.58220836 4 11.375 C4.3815625 12.45523437 4.763125 13.53546875 5.15625 14.6484375 C5.5171875 15.6796875 5.878125 16.7109375 6.25 17.7734375 C6.58515625 18.72653809 6.9203125 19.67963867 7.265625 20.66162109 C8 23 8 23 8 25 C5.44870003 26.09341427 3.10819042 26.9793923 0.375 27.5 C-2.25146244 27.89941503 -2.25146244 27.89941503 -5 30 C-5.99 30 -6.98 30 -8 30 C-8.66 27.69 -9.32 25.38 -10 23 C-8.35 22.01 -6.7 21.02 -5 20 C-5.48830607 15.19832361 -6.18556972 11.47559468 -8 7 C-8.125 4.1875 -8.125 4.1875 -8 2 C-2.25 0 -2.25 0 0 0 Z " fill="#2C2C2C" transform="translate(304,382)"/>
<path d="M0 0 C1 6.75 1 6.75 1 9 C1.515625 9.825 2.03125 10.65 2.5625 11.5 C3.036875 12.325 3.51125 13.15 4 14 C3.67 14.66 3.34 15.32 3 16 C0.67843403 16.40729228 -1.6568787 16.74438677 -4 17 C-4.28875 16.195625 -4.5775 15.39125 -4.875 14.5625 C-5.73262568 11.8673532 -5.73262568 11.8673532 -8 11 C-9.587018 11.06279568 -11.17163011 11.19803125 -12.75 11.375 C-14.08417969 11.52388672 -14.08417969 11.52388672 -15.4453125 11.67578125 C-18.31242332 12.03965005 -21.15765097 12.47640939 -24 13 C-25.60367292 10.45299007 -26.06442578 9.38598454 -25.55859375 6.35546875 C-25.37425781 5.57816406 -25.18992187 4.80085937 -25 4 C-21.39883744 3.13281402 -17.79369152 2.28350759 -14.1875 1.4375 C-13.16333984 1.19064453 -12.13917969 0.94378906 -11.08398438 0.68945312 C-10.10107422 0.46064453 -9.11816406 0.23183594 -8.10546875 -0.00390625 C-7.19949951 -0.21861572 -6.29353027 -0.4333252 -5.36010742 -0.65454102 C-3 -1 -3 -1 0 0 Z " fill="#2D2D2D" transform="translate(412,206)"/>
<path d="M0 0 C1.3125 2.0625 1.3125 2.0625 2 4 C7.75813575 4.10469338 13.29014022 3.74016701 19 3 C20.76462683 6.08809695 21 7.23312136 21 11 C8.625 13.97 8.625 13.97 -4 17 C-6 12 -6 12 -5.4375 10 C-4.72841392 7.81920643 -4.72841392 7.81920643 -6.4375 5.4375 C-6.953125 4.633125 -7.46875 3.82875 -8 3 C-8 2.01 -8 1.02 -8 0 C-4.66411172 -1.11196276 -3.29427581 -1.09809194 0 0 Z M0 7 C0.33 8.32 0.66 9.64 1 11 C0.34 11.66 -0.32 12.32 -1 13 C3.97093824 12.58846263 8.44508386 12.20399168 13 10 C12.67 9.01 12.34 8.02 12 7 C8.04 7 4.08 7 0 7 Z " fill="#3E3E3E" transform="translate(91,280)"/>
<path d="M0 0 C2.49361571 1.20381448 4.68143083 2.45428722 7 4 C6.38722388 6.96175123 5.74627478 8.38058783 4 11 C3.34 11 2.68 11 2 11 C1.7525 11.721875 1.505 12.44375 1.25 13.1875 C-1.0629994 18.39174866 -4.95817827 22.0704511 -9 26 C-10.98 24.68 -12.96 23.36 -15 22 C-13.63562889 18.06781248 -11.8494387 15.31118284 -9.1875 12.125 C-5.94775486 8.18301502 -2.91314161 4.18764107 0 0 Z " fill="#303030" transform="translate(159,361)"/>
<path d="M0 0 C4.50780187 0.03238363 8.13192149 0.71164661 12.375 2.1875 C12.375 2.5175 12.375 2.8475 12.375 3.1875 C7.92 3.6825 7.92 3.6825 3.375 4.1875 C4.695 5.1775 6.015 6.1675 7.375 7.1875 C2.425 7.1875 -2.525 7.1875 -7.625 7.1875 C-5.24236497 0.0395949 -5.24236497 0.0395949 0 0 Z " fill="#1F1F1F" transform="translate(100.625,178.8125)"/>
<path d="M0 0 C0.33 2.31 0.66 4.62 1 7 C-3.455 7.495 -3.455 7.495 -8 8 C-8 6.35 -8 4.7 -8 3 C-11.3 3 -14.6 3 -18 3 C-18 2.67 -18 2.34 -18 2 C-16.96875 1.87625 -15.9375 1.7525 -14.875 1.625 C-11.06901699 1.1334395 -11.06901699 1.1334395 -7.875 -0.125 C-4.7519656 -1.07548873 -3.09159705 -0.90929325 0 0 Z " fill="#2D2D2D" transform="translate(111,284)"/>
<path d="M0 0 C0.6875 2.25 0.6875 2.25 1 5 C-0.4375 7.3125 -0.4375 7.3125 -2 9 C-7.875 8.125 -7.875 8.125 -9 7 C-9.04092937 4.66702567 -9.04241723 2.33294775 -9 0 C-5.93109813 -1.53445094 -3.29905734 -0.54984289 0 0 Z " fill="#393939" transform="translate(399,228)"/>
<path d="M0 0 C2.9375 0.25 2.9375 0.25 6 1 C8 4 8 4 7.6875 6.625 C7 9 7 9 6 10 C3.2040342 10.29431219 1.56287181 10.33772308 -0.875 8.875 C-2 7 -2 7 -1.75 3.875 C-1 1 -1 1 0 0 Z " fill="#414141" transform="translate(140,385)"/>
<path d="M0 0 C0.66 0.33 1.32 0.66 2 1 C-2.46351289 6.22325977 -7.0744893 11.20922972 -12 16 C-12 12.51645795 -11.54964842 12.11572947 -9.3125 9.625 C-8.76851562 9.0165625 -8.22453125 8.408125 -7.6640625 7.78125 C-5.49562195 5.46010236 -3.27848793 3.21338827 -1 1 C-0.67 0.67 -0.34 0.34 0 0 Z " fill="#5E5E5E" transform="translate(137,340)"/>
<path d="M0 0 C0 0.33 0 0.66 0 1 C-0.64066406 1.00257813 -1.28132813 1.00515625 -1.94140625 1.0078125 C-8.80294377 1.31458765 -12.34770866 2.9625852 -17 8 C-12.88643856 -0.40367057 -8.96371278 -0.55636838 0 0 Z " fill="#727272" transform="translate(98,190)"/>
<path d="M0 0 C0.91007813 0.00902344 1.82015625 0.01804687 2.7578125 0.02734375 C3.45648438 0.03894531 4.15515625 0.05054688 4.875 0.0625 C4.875 0.3925 4.875 0.7225 4.875 1.0625 C4.28332031 1.07667969 3.69164062 1.09085937 3.08203125 1.10546875 C-1.48346843 1.38103725 -3.56661431 1.59527932 -7.1875 4.625 C-8.1465625 5.8315625 -8.1465625 5.8315625 -9.125 7.0625 C-9.785 6.7325 -10.445 6.4025 -11.125 6.0625 C-7.4216066 1.24808858 -6.05973821 -0.07768895 0 0 Z " fill="#777777" transform="translate(178.125,364.9375)"/>
<path d="M0 0 C0.99 0.33 1.98 0.66 3 1 C2.236875 1.5775 1.47375 2.155 0.6875 2.75 C-1.66200917 4.71703093 -3.29323505 6.48476744 -5 9 C-5.3125 6.75 -5.3125 6.75 -5 4 C-2.6875 1.625 -2.6875 1.625 0 0 Z " fill="#808080" transform="translate(339,360)"/>
<path d="M0 0 C0 0.33 0 0.66 0 1 C-1.093125 1.103125 -2.18625 1.20625 -3.3125 1.3125 C-6.85559629 1.97307727 -7.93243723 2.2027092 -10 5 C-10.66 4.67 -11.32 4.34 -12 4 C-8.41084094 -0.78554541 -5.58334594 -0.37222306 0 0 Z " fill="#676767" transform="translate(372,334)"/>
<path d="M0 0 C-1.49097658 3.7952131 -3.75700849 5.61042731 -7 8 C-4.18918919 0 -4.18918919 0 0 0 Z " fill="#616161" transform="translate(113,323)"/>
</svg>
